<svg xmlns="http://www.w3.org/2000/svg" width="40" height="37" viewBox="0 0 40 37">
    <g fill="none" fill-rule="nonzero">
        <path fill="#D6B772" d="M0 29.463h13.793V37H0zM26.207 29.463H40V37H26.207z"/>
        <path fill="#F4D99D" d="M34.483 29.463h-8.276v-.595c0-1.769-.89-4.123-2.37-5.103a6.952 6.952 0 0 0-7.673 0c-1.481.981-2.37 3.334-2.37 5.103v.595H5.516V18.5h28.966v10.963z"/>
        <path fill="#FACE64" d="M13.793 10.278h12.414V18.5H13.793z"/>
        <path fill="#C03A2B" d="M29.655 10.278h-19.31L20 0z"/>
        <path fill="#FACE64" d="M0 29.463h6.897V37H0zM33.103 29.463H40V37h-6.897z"/>
        <path fill="#D6B772" d="M19.31 18.5h1.379v4.111H19.31zM13.793 13.704h12.414v1.37H13.793z"/>
    </g>
</svg>
