<svg xmlns="http://www.w3.org/2000/svg" width="40" height="36" viewBox="0 0 40 36">
    <g fill="none" fill-rule="evenodd">
        <path fill="#F6D51F" fill-rule="nonzero" d="M20.154 12.651c-9.064 0-16.412 6.662-16.412 14.88 0 2.168.516 4.226 1.435 6.082 4.042 2.026 9.028 1.84 14.426 1.84 6.072 0 11.623-.133 15.895-2.639a13.634 13.634 0 0 0 1.068-5.284c0-8.217-7.347-14.879-16.412-14.879z"/>
        <path fill="#D1D4D1" fill-rule="nonzero" d="M19.65 13.004a.697.697 0 0 1-.703-.693V5.388c0-.382.315-.692.702-.692.387 0 .702.31.702.692v6.923a.697.697 0 0 1-.702.693z"/>
        <path fill="#E57E25" fill-rule="nonzero" d="M36.462 29.133l-.549.31c-4.24 2.36-9.698 2.549-16.394 2.549l-1.324.002c-5.014.01-9.753.025-13.526-1.757l-.736-.46c.105.626.254 1.238.442 1.835 3.661 1.627 7.968 1.768 12.545 1.768l1.278-.002 1.32-.003c6.664 0 12.15-.193 16.607-2.48.149-.576.266-1.162.337-1.762z"/>
        <path fill="#E57E25" fill-rule="nonzero" d="M19.732 13.348c.41.081 2.027 1.408 3.405 4.06 1.378 2.653 3.224 8.119.1 14.912a.689.689 0 0 0 .349.916.705.705 0 0 0 .93-.344c3.914-8.511.628-15.107-.966-17.548-.653-1-1.483-2.003-2.277-2.654-.37-.023-.741-.038-1.117-.038-.37 0-.738.015-1.103.037a.677.677 0 0 0 .679.659z"/>
        <path fill="#E57E25" fill-rule="nonzero" d="M20.285 12.657v-.003c-.044 0-.087-.003-.13-.003-.747 0-1.48.05-2.2.137-.758.651-1.537 1.606-2.158 2.555-1.593 2.441-4.88 9.037-.964 17.549a.702.702 0 0 0 .93.344.689.689 0 0 0 .349-.917c-3.125-6.793-1.28-12.259.099-14.912 1.377-2.652 2.993-3.979 3.372-4.058a.696.696 0 0 0 .702-.692z"/>
        <path d="M19.665 4.802h1v1h-1z"/>
        <path fill="#A5A5A4" fill-rule="nonzero" d="M0 4.924V4.92zM19.633 4.802l.016.012V4.79z"/>
        <path fill="#ECF0F1" fill-rule="nonzero" d="M0 4.922C0 6.016.722 6.95 1.89 7.634 1.067 7.153.47 6.548.187 5.85l.994.357c3.633 1.526 7.975-.224 8.623-.504.035-.026.064-.058.104-.077.214-.099 5.142-2.332 9.52-.687a12.148 12.148 0 0 1 .204-.137c-.172-.127-5.822-4.26-12.478-4.26C3.245.542.002 2.608 0 4.922z"/>
        <path fill="#A5A5A4" fill-rule="nonzero" d="M10.594 6.84c-.035.026-.062.057-.103.076-.156.072-2.848 1.299-6 1.299-.553 0-1.12-.046-1.69-.134 1.2.488 2.693.769 4.313.769h.032c5.602 0 10.495-2.782 12.011-3.737a24.85 24.85 0 0 1-1.354.786c-3.244-.668-6.644.7-7.209.942zM2.324 7.867zM2.801 8.081z"/>
        <path fill="#D1D4D1" fill-rule="nonzero" d="M19.203 5.084zM1.91 7.647l-.02-.012c.007.003.014.008.02.012zM2.346 7.878l-.022-.011a.213.213 0 0 0 .022.01z"/>
        <path fill="#D1D4D1" fill-rule="nonzero" d="M9.91 5.626c-.041.018-.07.05-.105.077-.648.28-4.99 2.03-8.623.504L.19 5.85c.283.698.88 1.304 1.7 1.785l.022.012c.132.077.27.15.413.22l.022.011c.147.072.298.14.455.203.57.089 1.137.135 1.69.135 3.152 0 5.844-1.226 6-1.3.04-.018.068-.05.103-.075.566-.242 3.965-1.61 7.208-.942.58-.313 1.04-.588 1.354-.786l.047-.029.226-.144c-4.378-1.646-9.306.587-9.52.686zM38.516 2.995zM19.665 4.802zM19.678 4.793l.067-.048-.067.048z"/>
        <path fill="#ECF0F1" fill-rule="nonzero" d="M28.543 3.047c.033-.025.06-.056.098-.076.198-.098 4.675-2.268 8.74-.974.442.296.821.626 1.122.981C37.31 1.566 34.894.542 32.143.542c-4.785 0-9.045 2.136-11.132 3.386 3.237.992 6.955-.615 7.532-.881z"/>
        <path fill="#D1D4D1" fill-rule="nonzero" d="M19.65 4.814l.015-.012z"/>
        <path fill="#A5A5A4" fill-rule="nonzero" d="M39.164 4.12l-1.648-.604c-3.39-1.425-7.551.373-8.164.655-.033.024-.059.056-.097.076-.153.076-2.857 1.391-5.953 1.391-1.068 0-2.18-.165-3.253-.583 1.394.89 6.378 3.795 12.104 3.795h.032c3.91 0 7.111-1.613 7.113-3.927 0-.47-.14-.93-.388-1.365.105.183.191.37.254.562z"/>
        <path fill="#D1D4D1" fill-rule="nonzero" d="M39.298 4.92v.004zM20.058 4.53zM19.825 4.689z"/>
        <path fill="#A5A5A4" fill-rule="nonzero" d="M19.665 4.802l-.016-.011zM19.65 4.79v.024l.015-.012zM20.05 5.055l-.002-.002zM20.038 4.544l.02-.014-.02.014zM38.503 2.978l.013.017-.013-.017zM19.678 4.793zM19.744 4.746l.08-.056-.08.056zM21.01 3.929l-.003.002zM38.878 3.504l.032.052-.032-.052z"/>
        <path fill="#D1D4D1" fill-rule="nonzero" d="M29.255 4.246c.038-.019.064-.05.097-.076.613-.28 4.774-2.08 8.163-.654l1.649.604a3.049 3.049 0 0 0-.255-.563l-.032-.053a3.794 3.794 0 0 0-.36-.508l-.014-.017a5.44 5.44 0 0 0-1.122-.982c-4.065-1.293-8.542.877-8.74.975-.039.019-.064.05-.098.076-.577.265-4.295 1.873-7.532.882-.002 0-.003 0-.005.002-.402.24-.722.447-.948.6-.007.003-.014.008-.02.012-.087.058-.156.106-.213.146l-.081.056a2.368 2.368 0 0 0-.08.057c.024.016.158.107.383.25l.001.002c1.073.418 2.186.583 3.254.583 3.096 0 5.8-1.316 5.953-1.392z"/>
    </g>
</svg>
