<svg xmlns="http://www.w3.org/2000/svg" width="21" height="26" viewBox="0 0 21 26">
    <g fill="none" fill-rule="nonzero">
        <g fill="#01B4BC">
            <path d="M1.354.88h6.172c.24 0 .411.204.411.407v23.409a.415.415 0 0 1-.411.406H1.354a.414.414 0 0 1-.411-.406V1.287c-.034-.203.171-.406.411-.406zM13.526.88h6.171c.24 0 .412.204.412.407v23.409a.415.415 0 0 1-.412.406h-6.171a.414.414 0 0 1-.412-.406V1.287c-.034-.203.172-.406.412-.406z"/>
        </g>
        <g fill="#5F717F">
            <path d="M7.491 0H1.32C.943 0 .634.136.394.373s-.377.542-.377.914v23.409c0 .339.137.677.377.914.24.238.549.373.926.373h6.171c.343 0 .686-.135.926-.373.24-.237.377-.542.377-.914V1.287a1.3 1.3 0 0 0-.377-.914C8.177.169 7.87 0 7.491 0zm-.445 24.255H1.8V1.762h5.246v22.493zM19.663 0H13.49c-.377 0-.685.136-.925.373s-.377.542-.377.914v23.409c0 .339.137.677.377.914.24.238.548.373.925.373h6.172c.343 0 .686-.135.926-.373.24-.237.377-.542.377-.914V1.287a1.3 1.3 0 0 0-.377-.914A1.357 1.357 0 0 0 19.663 0zm-.446 24.255h-5.246V1.762h5.246v22.493z"/>
        </g>
    </g>
</svg>
