<svg xmlns="http://www.w3.org/2000/svg" width="20" height="26" viewBox="0 0 20 26">
    <g fill="none" fill-rule="nonzero">
        <path fill="#01B4BC" d="M10.777 6.5l7.661 5.336c.136.103.271.205.373.376a1.42 1.42 0 0 1-.339 1.95L10.777 19.5l-7.56 5.303a1.32 1.32 0 0 1-.88.308c-.78 0-1.39-.616-1.39-1.403V2.291c0-.273.067-.547.237-.787.44-.65 1.288-.786 1.932-.342L10.777 6.5z"/>
        <path fill="#5F717F" d="M2.336 26c.272 0 .509-.035.746-.138.237-.068.44-.205.644-.342l7.56-5.268 7.627-5.303c.034-.034.101-.068.135-.102.475-.343.78-.856.882-1.403.101-.547 0-1.13-.305-1.642-.034-.034-.068-.103-.102-.137-.068-.103-.136-.171-.237-.274-.102-.102-.204-.205-.34-.273l-7.66-5.337L3.59.41A2.322 2.322 0 0 0 1.896.033 2.187 2.187 0 0 0 .438.991a2.6 2.6 0 0 0-.305.616 1.43 1.43 0 0 0-.102.547v21.553c0 .616.238 1.197.678 1.608.441.41.983.684 1.627.684zm-.542-13V2.393v-.137c0-.034 0-.068.034-.103 0-.034.034-.068.034-.102 0-.034.034-.034.034-.069a.404.404 0 0 1 .305-.17c.102-.035.237 0 .339.068.034.034.068.034.102.068l7.627 5.303 7.66 5.337c.035.034.068.034.068.068l.068.068a.505.505 0 0 1 .068.377.711.711 0 0 1-.203.342l-7.627 5.337-7.594 5.302c-.034 0-.034.035-.067.035-.034.034-.102.068-.136.102-.068.034-.102.034-.17.034a.707.707 0 0 1-.372-.136.517.517 0 0 1-.136-.377V13h-.034z"/>
    </g>
</svg>
