<svg xmlns="http://www.w3.org/2000/svg" width="11" height="12" viewBox="0 0 11 12">
    <path fill="#595653" fill-rule="nonzero" d="M6.11 11.955c2.53-.27 4.557-2.192 4.846-4.597.378-3.144-2.193-5.821-5.415-5.855V.093c0-.08-.103-.12-.173-.072L2.313 2.154a.087.087 0 0 0 0 .145l3.055 2.133c.07.049.173.005.173-.071V2.953c2.264.034 4.078 1.866 3.923 4.055-.131 1.883-1.747 3.411-3.728 3.531-2.1.128-3.884-1.298-4.204-3.183-.06-.35-.381-.605-.752-.605-.461 0-.822.39-.75.823.449 2.686 3.058 4.702 6.08 4.381z"/>
</svg>
