<svg xmlns="http://www.w3.org/2000/svg" width="35" height="26" viewBox="0 0 35 26">
    <g fill="none" fill-rule="nonzero">
        <g fill="#5F717F">
            <path d="M4.062 17.481c.036.584.254 1.132.653 1.533l.073.073c.399.365.943.62 1.56.62h2.43l.833.548 8.088 5.218c.218.146.436.255.69.365.253.073.507.146.798.146.652 0 1.233-.256 1.704-.657a2.242 2.242 0 0 0 .726-1.679V2.373v-.145c0-.182-.037-.365-.11-.547a2.033 2.033 0 0 0-.326-.62 2.521 2.521 0 0 0-1.56-.95c-.58-.109-1.232 0-1.776.365l-8.27 5.292-.834.547H6.31a2.3 2.3 0 0 0-1.632.693l-.073.073a2.2 2.2 0 0 0-.58 1.496h-.4a3.492 3.492 0 0 0-2.574 1.095c-.036.037-.036.037-.036.073C.399 10.402 0 11.315 0 12.263v1.642c0 1.022.399 1.934 1.088 2.591a3.635 3.635 0 0 0 2.575 1.095h.4v-.11zM18.788 2.01c.145-.073.29-.11.471-.073.145.037.29.11.363.219.036.036.036.073.072.11v21.347c0 .11-.036.219-.145.292-.109.11-.254.146-.435.146-.073 0-.145 0-.218-.037-.072-.036-.108-.036-.181-.073-.036 0-.036-.036-.073-.036l-8.051-5.255-.617-.401V7.738l.617-.401 8.197-5.328zM5.912 8.577c0-.109.036-.219.109-.291l.036-.037a.41.41 0 0 1 .29-.11h1.741v9.67h-1.74a.41.41 0 0 1-.291-.109l-.036-.036a.416.416 0 0 1-.11-.292V8.577zM1.85 13.796v-1.642c0-.475.181-.913.471-1.241l.037-.037c.326-.328.761-.51 1.269-.51h.435v5.218h-.399c-.508 0-.943-.22-1.27-.511a1.797 1.797 0 0 1-.543-1.277zM29.052 18.029a8.742 8.742 0 0 0 1.596-5.036c0-1.861-.58-3.613-1.596-5.036a8.64 8.64 0 0 0-4.207-3.211c-.472-.146-1.016.11-1.161.584-.181.474.072 1.021.58 1.204a6.9 6.9 0 0 1 3.3 2.518c.799 1.131 1.234 2.518 1.234 3.977 0 1.46-.472 2.847-1.233 3.978a6.954 6.954 0 0 1-3.3 2.518.984.984 0 0 0-.581 1.204c.181.474.69.73 1.197.584 1.704-.693 3.155-1.825 4.17-3.284z"/>
            <path d="M33.114 6.351c-1.197-1.97-2.902-3.612-5.041-4.67-.472-.22-1.016-.037-1.234.401-.217.474-.036 1.022.4 1.24 1.813.913 3.264 2.336 4.28 4.015a10.896 10.896 0 0 1 1.595 5.656c0 2.043-.58 3.977-1.596 5.656-1.015 1.679-2.502 3.065-4.28 4.014a.89.89 0 0 0-.399 1.24.879.879 0 0 0 1.234.402 13.01 13.01 0 0 0 5.041-4.67 12.707 12.707 0 0 0 1.85-6.642c0-2.372-.653-4.671-1.85-6.642zM23.793 14.124a.984.984 0 0 0-.58 1.204c.18.475.689.73 1.196.584a3.086 3.086 0 0 0 1.487-1.131c.363-.51.58-1.131.58-1.788s-.217-1.277-.543-1.788a3.086 3.086 0 0 0-1.487-1.131c-.472-.183-1.016.073-1.197.583-.182.475.072 1.022.58 1.205.254.073.435.255.58.438.145.182.218.437.218.693 0 .255-.073.51-.218.693-.181.22-.362.365-.616.438z"/>
        </g>
        <path fill="#01B4BC" d="M1.85 12.19v1.642c0 .511.217.949.508 1.277.326.329.761.511 1.269.511h.435v-5.254h-.399c-.508 0-.943.218-1.27.51l-.035.037a1.896 1.896 0 0 0-.508 1.277z"/>
        <path fill="#9DA7B0" d="M5.912 9.453V17.372c0 .11.036.219.109.292l.036.036a.41.41 0 0 0 .29.11h1.741V8.176h-1.74a.41.41 0 0 0-.291.11l-.036.036a.416.416 0 0 0-.11.292v.84z"/>
        <path fill="#01B4BC" d="M9.938 7.738v10.51l.616.401 8.125 5.255.072.036a.276.276 0 0 0 .182.073.458.458 0 0 0 .217.037.775.775 0 0 0 .435-.146c.073-.073.146-.183.146-.292V2.264c0-.036-.037-.073-.073-.109-.073-.11-.218-.182-.363-.219a.721.721 0 0 0-.471.073L10.59 7.337l-.653.401z"/>
    </g>
</svg>
